<mxfile host="app.diagrams.net" modified="2023-11-24T12:58:00.376Z" agent="Mozilla/5.0 (Windows NT 10.0; Win64; x64) AppleWebKit/537.36 (KHTML, like Gecko) Chrome/119.0.0.0 Safari/537.36" etag="W9D-vKBsCINzn7HKy4F5" version="22.1.3" type="google">
  <diagram name="Página-1" id="M-0s0VyHH_Z-izu_WwVb">
    <mxGraphModel grid="1" page="1" gridSize="10" guides="1" tooltips="1" connect="1" arrows="1" fold="1" pageScale="1" pageWidth="827" pageHeight="1169" math="0" shadow="0">
      <root>
        <mxCell id="0" />
        <mxCell id="1" parent="0" />
        <mxCell id="0VJDASDO0vlOfgR1g9Ta-1" value="Vista Panel Administrador" style="shape=umlBoundary;whiteSpace=wrap;html=1;" vertex="1" parent="1">
          <mxGeometry x="130" y="165" width="110" height="90" as="geometry" />
        </mxCell>
        <mxCell id="0VJDASDO0vlOfgR1g9Ta-2" value="WebServer" style="ellipse;shape=umlControl;whiteSpace=wrap;html=1;" vertex="1" parent="1">
          <mxGeometry x="290" y="155" width="100" height="100" as="geometry" />
        </mxCell>
        <mxCell id="0VJDASDO0vlOfgR1g9Ta-3" value="Conexión&lt;br&gt;BBDD" style="ellipse;shape=umlEntity;whiteSpace=wrap;html=1;" vertex="1" parent="1">
          <mxGeometry x="560" y="155" width="100" height="100" as="geometry" />
        </mxCell>
        <mxCell id="0VJDASDO0vlOfgR1g9Ta-4" value="&lt;b&gt;&lt;br&gt;ELIMINAR USUARIO&lt;/b&gt;" style="text;html=1;strokeColor=none;fillColor=none;align=center;verticalAlign=middle;whiteSpace=wrap;rounded=0;" vertex="1" parent="1">
          <mxGeometry x="40" y="50" width="160" height="50" as="geometry" />
        </mxCell>
        <mxCell id="0VJDASDO0vlOfgR1g9Ta-5" value="Actor" style="shape=umlActor;verticalLabelPosition=bottom;verticalAlign=top;html=1;" vertex="1" parent="1">
          <mxGeometry x="50" y="175" width="30" height="60" as="geometry" />
        </mxCell>
        <mxCell id="0VJDASDO0vlOfgR1g9Ta-6" value="Biblioteca" style="ellipse;shape=umlControl;whiteSpace=wrap;html=1;" vertex="1" parent="1">
          <mxGeometry x="420" y="150" width="100" height="105" as="geometry" />
        </mxCell>
        <mxCell id="0VJDASDO0vlOfgR1g9Ta-7" value="1. El administrador accede al apartado &quot;Panel de Administrador&quot;, introducir el email del usuario en el campo y hacer clic en eliminar usuario&lt;br&gt;2. eliminarUsuario(email) : bool&lt;br&gt;&lt;span style=&quot;white-space: pre;&quot;&gt;&#x9;&lt;/span&gt;2.1 eliminarUsuario(email) : bool&lt;br&gt;&lt;span style=&quot;&quot;&gt;&lt;span style=&quot;white-space: pre;&quot;&gt;&amp;nbsp;&amp;nbsp;&amp;nbsp;&amp;nbsp;&lt;/span&gt;&lt;/span&gt;&lt;span style=&quot;&quot;&gt;&lt;span style=&quot;white-space: pre;&quot;&gt;&amp;nbsp;&amp;nbsp;&amp;nbsp;&amp;nbsp;&lt;span style=&quot;white-space: pre;&quot;&gt;&#x9;&lt;/span&gt;&lt;/span&gt;&lt;/span&gt;2.1.1 executeQuery(&quot;Eliminar libros prestados&quot;)&lt;br&gt;&lt;span style=&quot;white-space: pre;&quot;&gt;&#x9;&lt;/span&gt;&lt;span style=&quot;white-space: pre;&quot;&gt;&#x9;&lt;/span&gt;2.1.2 executeQuery(&quot;Eliminar libros devueltos&quot;)&lt;br&gt;&lt;span style=&quot;white-space: pre;&quot;&gt;&#x9;&lt;/span&gt;&lt;span style=&quot;white-space: pre;&quot;&gt;&#x9;&lt;/span&gt;2.1.3 executeQuery(&quot;Eliminar amigos&quot;)&lt;br&gt;&lt;span style=&quot;white-space: pre;&quot;&gt;&#x9;&lt;/span&gt;&lt;span style=&quot;white-space: pre;&quot;&gt;&#x9;&lt;/span&gt;2.1.4 executeQuery(&quot;Eliminar solicitudes de amistad enviadas/recibidas&quot;)&lt;br&gt;&lt;span style=&quot;white-space: pre;&quot;&gt;&#x9;&lt;/span&gt;&lt;span style=&quot;white-space: pre;&quot;&gt;&#x9;&lt;/span&gt;2.1.5 executeQuery(&quot;Eliminar los comentarios&quot;)&lt;br&gt;&lt;span style=&quot;white-space: pre;&quot;&gt;&#x9;&lt;/span&gt;&lt;span style=&quot;white-space: pre;&quot;&gt;&#x9;&lt;/span&gt;2.1.6 executeQuery(&quot;Eliminar usuario&quot;)" style="text;html=1;strokeColor=none;fillColor=none;align=left;verticalAlign=middle;whiteSpace=wrap;rounded=0;" vertex="1" parent="1">
          <mxGeometry y="290" width="750" height="190" as="geometry" />
        </mxCell>
        <mxCell id="0VJDASDO0vlOfgR1g9Ta-8" value="" style="endArrow=classic;html=1;rounded=0;" edge="1" parent="1" source="0VJDASDO0vlOfgR1g9Ta-5">
          <mxGeometry width="50" height="50" relative="1" as="geometry">
            <mxPoint x="410" y="335" as="sourcePoint" />
            <mxPoint x="120" y="205" as="targetPoint" />
          </mxGeometry>
        </mxCell>
        <mxCell id="0VJDASDO0vlOfgR1g9Ta-9" value="" style="endArrow=classic;html=1;rounded=0;entryX=-0.02;entryY=0.54;entryDx=0;entryDy=0;entryPerimeter=0;" edge="1" parent="1" target="0VJDASDO0vlOfgR1g9Ta-2">
          <mxGeometry width="50" height="50" relative="1" as="geometry">
            <mxPoint x="240" y="209.5" as="sourcePoint" />
            <mxPoint x="280" y="209.5" as="targetPoint" />
          </mxGeometry>
        </mxCell>
        <mxCell id="0VJDASDO0vlOfgR1g9Ta-10" value="" style="endArrow=classic;html=1;rounded=0;entryX=-0.01;entryY=0.59;entryDx=0;entryDy=0;entryPerimeter=0;exitX=1;exitY=0.56;exitDx=0;exitDy=0;exitPerimeter=0;" edge="1" parent="1" source="0VJDASDO0vlOfgR1g9Ta-2" target="0VJDASDO0vlOfgR1g9Ta-6">
          <mxGeometry width="50" height="50" relative="1" as="geometry">
            <mxPoint x="100" y="225" as="sourcePoint" />
            <mxPoint x="140" y="225" as="targetPoint" />
          </mxGeometry>
        </mxCell>
        <mxCell id="0VJDASDO0vlOfgR1g9Ta-11" value="" style="endArrow=classic;html=1;rounded=0;entryX=0;entryY=0.5;entryDx=0;entryDy=0;exitX=0.99;exitY=0.514;exitDx=0;exitDy=0;exitPerimeter=0;" edge="1" parent="1" source="0VJDASDO0vlOfgR1g9Ta-6" target="0VJDASDO0vlOfgR1g9Ta-3">
          <mxGeometry width="50" height="50" relative="1" as="geometry">
            <mxPoint x="110" y="235" as="sourcePoint" />
            <mxPoint x="150" y="235" as="targetPoint" />
          </mxGeometry>
        </mxCell>
        <mxCell id="0VJDASDO0vlOfgR1g9Ta-12" value="1" style="text;html=1;strokeColor=none;fillColor=none;align=center;verticalAlign=middle;whiteSpace=wrap;rounded=0;" vertex="1" parent="1">
          <mxGeometry x="70" y="175" width="60" height="30" as="geometry" />
        </mxCell>
        <mxCell id="0VJDASDO0vlOfgR1g9Ta-13" value="2" style="text;html=1;strokeColor=none;fillColor=none;align=center;verticalAlign=middle;whiteSpace=wrap;rounded=0;" vertex="1" parent="1">
          <mxGeometry x="230" y="175" width="60" height="30" as="geometry" />
        </mxCell>
        <mxCell id="0VJDASDO0vlOfgR1g9Ta-14" value="2.1" style="text;html=1;strokeColor=none;fillColor=none;align=center;verticalAlign=middle;whiteSpace=wrap;rounded=0;" vertex="1" parent="1">
          <mxGeometry x="370" y="175" width="60" height="30" as="geometry" />
        </mxCell>
        <mxCell id="0VJDASDO0vlOfgR1g9Ta-15" value="2.1.1&lt;br&gt;2.1.2&lt;br&gt;2.1.3&lt;br&gt;2.1.4&lt;br&gt;2.1.5&lt;br&gt;2.1.6" style="text;html=1;strokeColor=none;fillColor=none;align=center;verticalAlign=middle;whiteSpace=wrap;rounded=0;" vertex="1" parent="1">
          <mxGeometry x="510" y="130" width="60" height="30" as="geometry" />
        </mxCell>
        <mxCell id="0VJDASDO0vlOfgR1g9Ta-16" value="Vista Panel Administrador" style="shape=umlBoundary;whiteSpace=wrap;html=1;" vertex="1" parent="1">
          <mxGeometry x="120" y="585" width="110" height="90" as="geometry" />
        </mxCell>
        <mxCell id="0VJDASDO0vlOfgR1g9Ta-17" value="WebServer" style="ellipse;shape=umlControl;whiteSpace=wrap;html=1;" vertex="1" parent="1">
          <mxGeometry x="280" y="575" width="100" height="100" as="geometry" />
        </mxCell>
        <mxCell id="0VJDASDO0vlOfgR1g9Ta-32" style="edgeStyle=orthogonalEdgeStyle;rounded=0;orthogonalLoop=1;jettySize=auto;html=1;exitX=1;exitY=0.5;exitDx=0;exitDy=0;entryX=1;entryY=0.5;entryDx=0;entryDy=0;" edge="1" parent="1" source="0VJDASDO0vlOfgR1g9Ta-18" target="0VJDASDO0vlOfgR1g9Ta-31">
          <mxGeometry relative="1" as="geometry" />
        </mxCell>
        <mxCell id="0VJDASDO0vlOfgR1g9Ta-18" value="Conexión&lt;br&gt;BBDD" style="ellipse;shape=umlEntity;whiteSpace=wrap;html=1;" vertex="1" parent="1">
          <mxGeometry x="610" y="525" width="100" height="100" as="geometry" />
        </mxCell>
        <mxCell id="0VJDASDO0vlOfgR1g9Ta-19" value="Actor" style="shape=umlActor;verticalLabelPosition=bottom;verticalAlign=top;html=1;" vertex="1" parent="1">
          <mxGeometry x="40" y="595" width="30" height="60" as="geometry" />
        </mxCell>
        <mxCell id="0VJDASDO0vlOfgR1g9Ta-20" value="Biblioteca" style="ellipse;shape=umlControl;whiteSpace=wrap;html=1;" vertex="1" parent="1">
          <mxGeometry x="410" y="570" width="100" height="105" as="geometry" />
        </mxCell>
        <mxCell id="0VJDASDO0vlOfgR1g9Ta-21" value="" style="endArrow=classic;html=1;rounded=0;" edge="1" parent="1" source="0VJDASDO0vlOfgR1g9Ta-19">
          <mxGeometry width="50" height="50" relative="1" as="geometry">
            <mxPoint x="400" y="755" as="sourcePoint" />
            <mxPoint x="110" y="625" as="targetPoint" />
          </mxGeometry>
        </mxCell>
        <mxCell id="0VJDASDO0vlOfgR1g9Ta-22" value="" style="endArrow=classic;html=1;rounded=0;entryX=-0.02;entryY=0.54;entryDx=0;entryDy=0;entryPerimeter=0;" edge="1" parent="1" target="0VJDASDO0vlOfgR1g9Ta-17">
          <mxGeometry width="50" height="50" relative="1" as="geometry">
            <mxPoint x="230" y="629.5" as="sourcePoint" />
            <mxPoint x="270" y="629.5" as="targetPoint" />
          </mxGeometry>
        </mxCell>
        <mxCell id="0VJDASDO0vlOfgR1g9Ta-23" value="" style="endArrow=classic;html=1;rounded=0;entryX=-0.01;entryY=0.59;entryDx=0;entryDy=0;entryPerimeter=0;exitX=1;exitY=0.56;exitDx=0;exitDy=0;exitPerimeter=0;" edge="1" parent="1" source="0VJDASDO0vlOfgR1g9Ta-17" target="0VJDASDO0vlOfgR1g9Ta-20">
          <mxGeometry width="50" height="50" relative="1" as="geometry">
            <mxPoint x="90" y="645" as="sourcePoint" />
            <mxPoint x="130" y="645" as="targetPoint" />
          </mxGeometry>
        </mxCell>
        <mxCell id="0VJDASDO0vlOfgR1g9Ta-24" value="" style="endArrow=classic;html=1;rounded=0;entryX=0;entryY=0.5;entryDx=0;entryDy=0;exitX=0.99;exitY=0.514;exitDx=0;exitDy=0;exitPerimeter=0;" edge="1" parent="1" source="0VJDASDO0vlOfgR1g9Ta-20" target="0VJDASDO0vlOfgR1g9Ta-18">
          <mxGeometry width="50" height="50" relative="1" as="geometry">
            <mxPoint x="100" y="655" as="sourcePoint" />
            <mxPoint x="140" y="655" as="targetPoint" />
          </mxGeometry>
        </mxCell>
        <mxCell id="0VJDASDO0vlOfgR1g9Ta-25" value="1" style="text;html=1;strokeColor=none;fillColor=none;align=center;verticalAlign=middle;whiteSpace=wrap;rounded=0;" vertex="1" parent="1">
          <mxGeometry x="60" y="595" width="60" height="30" as="geometry" />
        </mxCell>
        <mxCell id="0VJDASDO0vlOfgR1g9Ta-26" value="2" style="text;html=1;strokeColor=none;fillColor=none;align=center;verticalAlign=middle;whiteSpace=wrap;rounded=0;" vertex="1" parent="1">
          <mxGeometry x="220" y="595" width="60" height="30" as="geometry" />
        </mxCell>
        <mxCell id="0VJDASDO0vlOfgR1g9Ta-27" value="2.1" style="text;html=1;strokeColor=none;fillColor=none;align=center;verticalAlign=middle;whiteSpace=wrap;rounded=0;" vertex="1" parent="1">
          <mxGeometry x="360" y="595" width="60" height="30" as="geometry" />
        </mxCell>
        <mxCell id="0VJDASDO0vlOfgR1g9Ta-29" value="&lt;b&gt;AÑADIR USUARIO&lt;br&gt;&lt;/b&gt;" style="text;html=1;strokeColor=none;fillColor=none;align=center;verticalAlign=middle;whiteSpace=wrap;rounded=0;" vertex="1" parent="1">
          <mxGeometry x="30" y="530" width="130" height="61" as="geometry" />
        </mxCell>
        <mxCell id="0VJDASDO0vlOfgR1g9Ta-30" value="1. El administrador accede al apartado &quot;Panel de Administrador&quot;, introduce los datos del nuevo usuario y le da al botón &quot;Añadir Usuario&quot;&lt;br&gt;2. añadirUsuario(email, rol, contraseña) : bool&lt;br&gt;&lt;span style=&quot;white-space: pre;&quot;&gt;&#x9;&lt;/span&gt;2.1 añadirUsuario(email, rol, contraseña, emailAdmin) : bool&lt;br&gt;&lt;span style=&quot;white-space: pre;&quot;&gt;&#x9;&lt;/span&gt;&lt;span style=&quot;white-space: pre;&quot;&gt;&#x9;&lt;/span&gt;2.1.1 execSQL(&quot;SELECT FROM usuario WHERE email=%email%&quot;) : ResultadoSQL&lt;br&gt;&lt;span style=&quot;white-space: pre;&quot;&gt;&#x9;&lt;span style=&quot;white-space: pre;&quot;&gt;&#x9;&lt;span style=&quot;white-space: pre;&quot;&gt;&#x9;&lt;/span&gt;2&lt;/span&gt;.&lt;/span&gt;1.1.1 new ResultadoSQL()&lt;br&gt;&lt;span style=&quot;white-space: pre;&quot;&gt;&#x9;&lt;/span&gt;&lt;span style=&quot;white-space: pre;&quot;&gt;&#x9;&lt;/span&gt;2.1.2 next()&lt;br&gt;&lt;span style=&quot;white-space: pre;&quot;&gt;&#x9;&lt;span style=&quot;white-space: pre;&quot;&gt;&#x9;&lt;/span&gt;&lt;/span&gt;2.1.3 execSQL(INSERT INTO usuario VALUES...)" style="text;html=1;strokeColor=none;fillColor=none;align=left;verticalAlign=middle;whiteSpace=wrap;rounded=0;" vertex="1" parent="1">
          <mxGeometry y="750" width="810" height="190" as="geometry" />
        </mxCell>
        <mxCell id="0VJDASDO0vlOfgR1g9Ta-31" value="ResultadoSQL" style="ellipse;shape=umlEntity;whiteSpace=wrap;html=1;" vertex="1" parent="1">
          <mxGeometry x="610" y="650" width="100" height="100" as="geometry" />
        </mxCell>
        <mxCell id="0VJDASDO0vlOfgR1g9Ta-35" value="2.1.1" style="text;html=1;strokeColor=none;fillColor=none;align=center;verticalAlign=middle;whiteSpace=wrap;rounded=0;" vertex="1" parent="1">
          <mxGeometry x="510" y="560" width="60" height="30" as="geometry" />
        </mxCell>
        <mxCell id="0VJDASDO0vlOfgR1g9Ta-36" value="2.1.1.1" style="text;html=1;strokeColor=none;fillColor=none;align=center;verticalAlign=middle;whiteSpace=wrap;rounded=0;" vertex="1" parent="1">
          <mxGeometry x="740" y="595" width="60" height="30" as="geometry" />
        </mxCell>
        <mxCell id="0VJDASDO0vlOfgR1g9Ta-37" value="2.1.2" style="text;html=1;strokeColor=none;fillColor=none;align=center;verticalAlign=middle;whiteSpace=wrap;rounded=0;" vertex="1" parent="1">
          <mxGeometry x="520" y="685" width="60" height="30" as="geometry" />
        </mxCell>
        <mxCell id="0VJDASDO0vlOfgR1g9Ta-38" value="" style="endArrow=classic;html=1;rounded=0;entryX=0;entryY=0.5;entryDx=0;entryDy=0;exitX=0.99;exitY=0.752;exitDx=0;exitDy=0;exitPerimeter=0;" edge="1" parent="1" source="0VJDASDO0vlOfgR1g9Ta-20" target="0VJDASDO0vlOfgR1g9Ta-31">
          <mxGeometry width="50" height="50" relative="1" as="geometry">
            <mxPoint x="519" y="634" as="sourcePoint" />
            <mxPoint x="620" y="585" as="targetPoint" />
          </mxGeometry>
        </mxCell>
        <mxCell id="0VJDASDO0vlOfgR1g9Ta-39" value="2.1.3" style="text;html=1;strokeColor=none;fillColor=none;align=center;verticalAlign=middle;whiteSpace=wrap;rounded=0;" vertex="1" parent="1">
          <mxGeometry x="540" y="607.5" width="60" height="30" as="geometry" />
        </mxCell>
        <mxCell id="0VJDASDO0vlOfgR1g9Ta-40" value="Vista Panel Administrador" style="shape=umlBoundary;whiteSpace=wrap;html=1;" vertex="1" parent="1">
          <mxGeometry x="95" y="1000" width="110" height="90" as="geometry" />
        </mxCell>
        <mxCell id="0VJDASDO0vlOfgR1g9Ta-41" value="WebServer" style="ellipse;shape=umlControl;whiteSpace=wrap;html=1;" vertex="1" parent="1">
          <mxGeometry x="255" y="990" width="100" height="100" as="geometry" />
        </mxCell>
        <mxCell id="0VJDASDO0vlOfgR1g9Ta-42" style="edgeStyle=orthogonalEdgeStyle;rounded=0;orthogonalLoop=1;jettySize=auto;html=1;exitX=1;exitY=0.5;exitDx=0;exitDy=0;entryX=1;entryY=0.5;entryDx=0;entryDy=0;" edge="1" parent="1" source="0VJDASDO0vlOfgR1g9Ta-43" target="0VJDASDO0vlOfgR1g9Ta-54">
          <mxGeometry relative="1" as="geometry" />
        </mxCell>
        <mxCell id="0VJDASDO0vlOfgR1g9Ta-43" value="Conexión&lt;br&gt;BBDD" style="ellipse;shape=umlEntity;whiteSpace=wrap;html=1;" vertex="1" parent="1">
          <mxGeometry x="585" y="940" width="100" height="100" as="geometry" />
        </mxCell>
        <mxCell id="0VJDASDO0vlOfgR1g9Ta-44" value="Actor" style="shape=umlActor;verticalLabelPosition=bottom;verticalAlign=top;html=1;" vertex="1" parent="1">
          <mxGeometry x="15" y="1010" width="30" height="60" as="geometry" />
        </mxCell>
        <mxCell id="0VJDASDO0vlOfgR1g9Ta-45" value="Biblioteca" style="ellipse;shape=umlControl;whiteSpace=wrap;html=1;" vertex="1" parent="1">
          <mxGeometry x="385" y="985" width="100" height="105" as="geometry" />
        </mxCell>
        <mxCell id="0VJDASDO0vlOfgR1g9Ta-46" value="" style="endArrow=classic;html=1;rounded=0;" edge="1" parent="1" source="0VJDASDO0vlOfgR1g9Ta-44">
          <mxGeometry width="50" height="50" relative="1" as="geometry">
            <mxPoint x="375" y="1170" as="sourcePoint" />
            <mxPoint x="85" y="1040" as="targetPoint" />
          </mxGeometry>
        </mxCell>
        <mxCell id="0VJDASDO0vlOfgR1g9Ta-47" value="" style="endArrow=classic;html=1;rounded=0;entryX=-0.02;entryY=0.54;entryDx=0;entryDy=0;entryPerimeter=0;" edge="1" parent="1" target="0VJDASDO0vlOfgR1g9Ta-41">
          <mxGeometry width="50" height="50" relative="1" as="geometry">
            <mxPoint x="205" y="1044.5" as="sourcePoint" />
            <mxPoint x="245" y="1044.5" as="targetPoint" />
          </mxGeometry>
        </mxCell>
        <mxCell id="0VJDASDO0vlOfgR1g9Ta-48" value="" style="endArrow=classic;html=1;rounded=0;entryX=-0.01;entryY=0.59;entryDx=0;entryDy=0;entryPerimeter=0;exitX=1;exitY=0.56;exitDx=0;exitDy=0;exitPerimeter=0;" edge="1" parent="1" source="0VJDASDO0vlOfgR1g9Ta-41" target="0VJDASDO0vlOfgR1g9Ta-45">
          <mxGeometry width="50" height="50" relative="1" as="geometry">
            <mxPoint x="65" y="1060" as="sourcePoint" />
            <mxPoint x="105" y="1060" as="targetPoint" />
          </mxGeometry>
        </mxCell>
        <mxCell id="0VJDASDO0vlOfgR1g9Ta-49" value="" style="endArrow=classic;html=1;rounded=0;entryX=0;entryY=0.5;entryDx=0;entryDy=0;exitX=0.99;exitY=0.514;exitDx=0;exitDy=0;exitPerimeter=0;" edge="1" parent="1" source="0VJDASDO0vlOfgR1g9Ta-45" target="0VJDASDO0vlOfgR1g9Ta-43">
          <mxGeometry width="50" height="50" relative="1" as="geometry">
            <mxPoint x="75" y="1070" as="sourcePoint" />
            <mxPoint x="115" y="1070" as="targetPoint" />
          </mxGeometry>
        </mxCell>
        <mxCell id="0VJDASDO0vlOfgR1g9Ta-50" value="1" style="text;html=1;strokeColor=none;fillColor=none;align=center;verticalAlign=middle;whiteSpace=wrap;rounded=0;" vertex="1" parent="1">
          <mxGeometry x="35" y="1010" width="60" height="30" as="geometry" />
        </mxCell>
        <mxCell id="0VJDASDO0vlOfgR1g9Ta-51" value="2" style="text;html=1;strokeColor=none;fillColor=none;align=center;verticalAlign=middle;whiteSpace=wrap;rounded=0;" vertex="1" parent="1">
          <mxGeometry x="195" y="1010" width="60" height="30" as="geometry" />
        </mxCell>
        <mxCell id="0VJDASDO0vlOfgR1g9Ta-52" value="2.1" style="text;html=1;strokeColor=none;fillColor=none;align=center;verticalAlign=middle;whiteSpace=wrap;rounded=0;" vertex="1" parent="1">
          <mxGeometry x="335" y="1010" width="60" height="30" as="geometry" />
        </mxCell>
        <mxCell id="0VJDASDO0vlOfgR1g9Ta-53" value="&lt;b&gt;AÑADIR LIBRO&lt;br&gt;&lt;/b&gt;" style="text;html=1;strokeColor=none;fillColor=none;align=center;verticalAlign=middle;whiteSpace=wrap;rounded=0;" vertex="1" parent="1">
          <mxGeometry x="5" y="945" width="130" height="61" as="geometry" />
        </mxCell>
        <mxCell id="0VJDASDO0vlOfgR1g9Ta-54" value="ResultadoSQL" style="ellipse;shape=umlEntity;whiteSpace=wrap;html=1;" vertex="1" parent="1">
          <mxGeometry x="585" y="1065" width="100" height="100" as="geometry" />
        </mxCell>
        <mxCell id="0VJDASDO0vlOfgR1g9Ta-55" value="2.1.1" style="text;html=1;strokeColor=none;fillColor=none;align=center;verticalAlign=middle;whiteSpace=wrap;rounded=0;" vertex="1" parent="1">
          <mxGeometry x="485" y="975" width="60" height="30" as="geometry" />
        </mxCell>
        <mxCell id="0VJDASDO0vlOfgR1g9Ta-56" value="2.1.1.1" style="text;html=1;strokeColor=none;fillColor=none;align=center;verticalAlign=middle;whiteSpace=wrap;rounded=0;" vertex="1" parent="1">
          <mxGeometry x="715" y="1010" width="60" height="30" as="geometry" />
        </mxCell>
        <mxCell id="0VJDASDO0vlOfgR1g9Ta-57" value="2.1.2" style="text;html=1;strokeColor=none;fillColor=none;align=center;verticalAlign=middle;whiteSpace=wrap;rounded=0;" vertex="1" parent="1">
          <mxGeometry x="495" y="1100" width="60" height="30" as="geometry" />
        </mxCell>
        <mxCell id="0VJDASDO0vlOfgR1g9Ta-58" value="" style="endArrow=classic;html=1;rounded=0;entryX=0;entryY=0.5;entryDx=0;entryDy=0;exitX=0.99;exitY=0.752;exitDx=0;exitDy=0;exitPerimeter=0;" edge="1" parent="1" source="0VJDASDO0vlOfgR1g9Ta-45" target="0VJDASDO0vlOfgR1g9Ta-54">
          <mxGeometry width="50" height="50" relative="1" as="geometry">
            <mxPoint x="494" y="1049" as="sourcePoint" />
            <mxPoint x="595" y="1000" as="targetPoint" />
          </mxGeometry>
        </mxCell>
        <mxCell id="0VJDASDO0vlOfgR1g9Ta-59" value="2.1.3" style="text;html=1;strokeColor=none;fillColor=none;align=center;verticalAlign=middle;whiteSpace=wrap;rounded=0;" vertex="1" parent="1">
          <mxGeometry x="515" y="1022.5" width="60" height="30" as="geometry" />
        </mxCell>
        <mxCell id="0VJDASDO0vlOfgR1g9Ta-60" value="1. El administrador accede al apartado &quot;Panel de Administrador&quot;, introduce los datos del nuevo libro y le da al botón &quot;Añadir Libro&quot;&lt;br&gt;2. añadirLibro(id, titulo, descripción, numCopias, idAutor) : bool&lt;br&gt;&lt;span style=&quot;white-space: pre;&quot;&gt;&#x9;&lt;/span&gt;2.1 añadirLibro(id, titulo, descripción, numCopias, idAutor, emailAdmin) : bool&lt;br&gt;&lt;span style=&quot;&quot;&gt;&lt;span style=&quot;white-space: pre;&quot;&gt;&amp;nbsp;&amp;nbsp;&amp;nbsp;&amp;nbsp;&lt;/span&gt;&lt;/span&gt;&lt;span style=&quot;&quot;&gt;&lt;span style=&quot;white-space: pre;&quot;&gt;&amp;nbsp;&amp;nbsp;&amp;nbsp;&amp;nbsp;&lt;span style=&quot;white-space: pre;&quot;&gt;&#x9;&lt;/span&gt;&lt;/span&gt;&lt;/span&gt;2.1.1 execSQL(&quot;SELECT FROM libro WHERE id=%%&quot;) : ResultadoSQL&lt;br&gt;&lt;span style=&quot;&quot;&gt;&lt;span style=&quot;white-space: pre;&quot;&gt;&amp;nbsp;&amp;nbsp;&amp;nbsp;&amp;nbsp;&lt;/span&gt;&lt;span style=&quot;&quot;&gt;&lt;span style=&quot;white-space: pre;&quot;&gt;&amp;nbsp;&amp;nbsp;&amp;nbsp;&amp;nbsp;&lt;/span&gt;&lt;span style=&quot;&quot;&gt;&lt;span style=&quot;white-space: pre;&quot;&gt;&amp;nbsp;&amp;nbsp;&amp;nbsp;&amp;nbsp;    &lt;span style=&quot;white-space: pre;&quot;&gt;&#x9;&lt;/span&gt;&lt;/span&gt;&lt;/span&gt;2&lt;/span&gt;.&lt;/span&gt;1.1.1 new ResultadoSQL()&lt;br&gt;&lt;span style=&quot;&quot;&gt;&lt;span style=&quot;white-space: pre;&quot;&gt;&amp;nbsp;&amp;nbsp;&amp;nbsp;&amp;nbsp;&lt;/span&gt;&lt;/span&gt;&lt;span style=&quot;&quot;&gt;&lt;span style=&quot;white-space: pre;&quot;&gt;&amp;nbsp;&amp;nbsp;&amp;nbsp;&amp;nbsp;&lt;span style=&quot;white-space: pre;&quot;&gt;&#x9;&lt;/span&gt;&lt;/span&gt;&lt;/span&gt;2.1.2 next()&lt;br&gt;&lt;span style=&quot;&quot;&gt;&lt;span style=&quot;white-space: pre;&quot;&gt;&amp;nbsp;&amp;nbsp;&amp;nbsp;&amp;nbsp;&lt;/span&gt;&lt;span style=&quot;&quot;&gt;&lt;span style=&quot;white-space: pre;&quot;&gt;&amp;nbsp;&amp;nbsp;&amp;nbsp;&amp;nbsp;&lt;span style=&quot;white-space: pre;&quot;&gt;&#x9;&lt;/span&gt;&lt;/span&gt;&lt;/span&gt;&lt;/span&gt;2.1.3 execSQL(INSERT INTO libro VALUES...)&amp;nbsp;" style="text;html=1;strokeColor=none;fillColor=none;align=left;verticalAlign=middle;whiteSpace=wrap;rounded=0;" vertex="1" parent="1">
          <mxGeometry y="1165" width="810" height="190" as="geometry" />
        </mxCell>
      </root>
    </mxGraphModel>
  </diagram>
</mxfile>
